<?xml version="1.0" encoding="UTF-8" standalone="no"?>
<!-- Created with Inkscape (http://www.inkscape.org/) -->

<svg
   xmlns:dc="http://purl.org/dc/elements/1.1/"
   xmlns:cc="http://creativecommons.org/ns#"
   xmlns:rdf="http://www.w3.org/1999/02/22-rdf-syntax-ns#"
   xmlns:svg="http://www.w3.org/2000/svg"
   xmlns="http://www.w3.org/2000/svg"
   xmlns:xlink="http://www.w3.org/1999/xlink"
   xmlns:sodipodi="http://sodipodi.sourceforge.net/DTD/sodipodi-0.dtd"
   xmlns:inkscape="http://www.inkscape.org/namespaces/inkscape"
   id="svg1306"
   sodipodi:docname="internet-cloud2.svg"
   viewBox="0 0 512 512"
   sodipodi:version="0.32"
   version="1.1"
   inkscape:output_extension="org.inkscape.output.svg.inkscape"
   inkscape:version="0.91 r13725">
  <defs
     id="defs1308">
    <linearGradient
       id="linearGradient6527"
       inkscape:collect="always">
      <stop
         id="stop6530"
         style="stop-color:rgb(255, 255, 255)"
         offset="0" />
      <stop
         id="stop6532"
         style="stop-color:rgb(255, 255, 255);stop-opacity:0"
         offset="1" />
    </linearGradient>
    <linearGradient
       id="linearGradient3429"
       y2="-442.11"
       gradientUnits="userSpaceOnUse"
       x2="268.5"
       y1="-426.69"
       x1="288.74"
       inkscape:collect="always">
      <stop
         id="stop3425"
         style="stop-color:#c4c5c2"
         offset="0" />
      <stop
         id="stop3427"
         style="stop-color:#ffffff"
         offset="1" />
    </linearGradient>
    <linearGradient
       id="linearGradient3437"
       y2="-431.92"
       xlink:href="#linearGradient6527"
       gradientUnits="userSpaceOnUse"
       x2="279.98"
       gradientTransform="translate(-0.1423,-0.56919)"
       y1="-437.11"
       x1="275.94"
       inkscape:collect="always" />
    <linearGradient
       id="linearGradient3445"
       y2="-436.14"
       xlink:href="#linearGradient6527"
       gradientUnits="userSpaceOnUse"
       x2="289.85"
       y1="-441.29"
       x1="286.51"
       inkscape:collect="always" />
    <linearGradient
       id="linearGradient3469"
       y2="-436.44"
       gradientUnits="userSpaceOnUse"
       x2="289.39"
       y1="-439.94"
       x1="285.94"
       inkscape:collect="always">
      <stop
         id="stop6540"
         style="stop-color:rgb(255, 255, 255)"
         offset="0" />
      <stop
         id="stop6542"
         style="stop-color:rgb(255, 255, 255);stop-opacity:0"
         offset="1" />
    </linearGradient>
    <linearGradient
       id="linearGradient3493"
       y2="-436.32"
       gradientUnits="userSpaceOnUse"
       x2="289.68"
       y1="-439.75"
       x1="287.52"
       inkscape:collect="always">
      <stop
         id="stop6499"
         style="stop-color:rgb(255, 255, 255)"
         offset="0" />
      <stop
         id="stop6501"
         style="stop-color:rgb(255, 255, 255);stop-opacity:0"
         offset="1" />
    </linearGradient>
    <linearGradient
       inkscape:collect="always"
       xlink:href="#linearGradient6527"
       id="linearGradient3450"
       gradientUnits="userSpaceOnUse"
       gradientTransform="translate(-0.1423,-0.56919)"
       x1="275.94"
       y1="-437.11"
       x2="279.98"
       y2="-431.92" />
    <linearGradient
       inkscape:collect="always"
       xlink:href="#linearGradient6527"
       id="linearGradient3452"
       gradientUnits="userSpaceOnUse"
       x1="286.51"
       y1="-441.29"
       x2="289.85"
       y2="-436.14" />
    <linearGradient
       inkscape:collect="always"
       xlink:href="#linearGradient6527"
       id="linearGradient3454"
       gradientUnits="userSpaceOnUse"
       gradientTransform="translate(-0.1423,-0.56919)"
       x1="275.94"
       y1="-437.11"
       x2="279.98"
       y2="-431.92" />
  </defs>
  <sodipodi:namedview
     id="base"
     fit-margin-left="0"
     inkscape:showpageshadow="false"
     inkscape:zoom="1"
     borderopacity="1.0"
     inkscape:current-layer="layer1"
     inkscape:cx="345.56064"
     inkscape:cy="258.92914"
     inkscape:grid-bbox="true"
     inkscape:window-maximized="1"
     showgrid="true"
     fit-margin-right="0"
     inkscape:document-units="px"
     bordercolor="#666666"
     inkscape:window-x="0"
     inkscape:window-y="25"
     fit-margin-bottom="0"
     inkscape:window-width="1920"
     inkscape:pageopacity="0.0"
     inkscape:pageshadow="2"
     pagecolor="#ffffff"
     inkscape:window-height="1031"
     fit-margin-top="0" />
  <g
     id="layer1"
     inkscape:label="Layer 1"
     inkscape:groupmode="layer"
     transform="translate(-.45479 -.90579)"
     style="opacity:1">
    <g
       id="g2481"
       transform="matrix(16.545475,0,0,16.340548,-4384.5933,7347.3241)">
      <path
         id="path2483"
         sodipodi:nodetypes="ccssccscscscsscc"
         style="fill:#c4c5c2;stroke:#5b86bd;stroke-width:1.89999998;stroke-miterlimit:2"
         inkscape:connector-curvature="0"
         d="m 280.49,-445.61 c -2.2708,0 -4.1099,1.5503 -4.7188,3.625 -0.69323,-0.36383 -1.4445,-0.625 -2.2812,-0.625 -2.76,0 -5,2.24 -5,5 0,0.57893 0.16252,1.1077 0.34375,1.625 -5.4635,4.9579 -0.4573,12.468 5.4688,9.875 0.60884,2.0747 2.4479,3.625 4.7188,3.625 2.2708,0 4.1099,-1.5503 4.7188,-3.625 0.69323,0.36383 1.4445,0.625 2.2812,0.625 1.7005,0 3.2216,-0.82665 4.125,-2.125 2.4104,-0.0839 4.3438,-2.0693 4.3438,-4.5 0,-1.686 -0.97028,-3.1043 -2.3438,-3.875 0.18124,-0.51729 0.34375,-1.0461 0.34375,-1.625 0,-2.76 -2.24,-5 -5,-5 -0.83674,0 -1.588,0.26117 -2.2812,0.625 -0.60884,-2.0747 -2.4479,-3.625 -4.7188,-3.625 z" />
      <path
         id="path3421"
         sodipodi:nodetypes="ccsscscscscscsscc"
         style="fill:url(#linearGradient3429)"
         inkscape:connector-curvature="0"
         d="m 280.49,-445.61 c -2.2708,0 -4.1099,1.5503 -4.7188,3.625 -0.69323,-0.36383 -1.4445,-0.625 -2.2812,-0.625 -2.76,0 -5,2.24 -5,5 0,0.57893 0.16252,1.1077 0.34375,1.625 -4.6671,4.8431 -1.5342,10.489 3.2657,10.457 0.70818,-0.005 1.5906,0.10781 2.3454,-0.24954 0.60884,2.0747 2.6851,3.1032 4.9559,3.1032 2.2708,0 3.7304,-1.3606 4.3393,-3.4353 0.69323,0.36383 1.4445,0.625 2.2812,0.625 1.7005,0 3.2216,-0.82665 4.125,-2.125 2.4104,-0.0839 4.3438,-2.0693 4.3438,-4.5 0,-1.686 -0.97028,-3.1043 -2.3438,-3.875 0.18124,-0.51729 0.34375,-1.0461 0.34375,-1.625 0,-2.76 -2.24,-5 -5,-5 -0.83674,0 -1.588,0.26117 -2.2812,0.625 -0.60884,-2.0747 -2.4479,-3.625 -4.7188,-3.625 z" />
    </g>
    <g
       id="g3471"
       transform="matrix(13.949655,0,0,13.776879,-3781.3452,6295.9735)">
      <path
         id="path3473"
         sodipodi:nodetypes="cccc"
         style="fill:#c4c5c2"
         inkscape:connector-curvature="0"
         d="m 280.34,-441.55 c -3.5794,0 -6.4688,2.9206 -6.4688,6.5 0.56489,7.8655 12.106,7.592 12.969,-0.0312 0,-3.5794 -2.9206,-6.4688 -6.5,-6.4688 z" />
      <path
         id="path3475"
         sodipodi:nodetypes="cccc"
         style="fill:url(#linearGradient3450)"
         inkscape:connector-curvature="0"
         d="m 280.36,-441.57 c -3.588,0 -6.5,2.912 -6.5,6.5 0.53456,7.8928 12.138,7.6454 13,0 0,-3.588 -2.912,-6.5 -6.5,-6.5 z" />
    </g>
    <g
       id="g6668"
       transform="matrix(16.545475,0,0,16.340548,-4511.3317,7273.3017)">
      <g
         id="g3439"
         transform="translate(8.0064,3.8994)">
        <circle
           id="path3441"
           style="fill:#c4c5c2"
           transform="matrix(1.0566,0,0,1.0566,-17.198,24.863)"
           cx="288.375"
           cy="-437.59375"
           r="3.3125" />
        <circle
           id="path3443"
           style="fill:url(#linearGradient3452)"
           transform="matrix(1.0566,0,0,1.0566,-17.198,24.863)"
           cx="288.375"
           cy="-437.59375"
           r="3.3125" />
      </g>
      <g
         id="g3455"
         transform="matrix(1.3252,0,0,1.2778,-94.229,135.81)">
        <circle
           id="path3457"
           style="fill:#c4c5c2"
           transform="matrix(1.0566,0,0,1.0566,-17.198,24.863)"
           cx="288.375"
           cy="-437.59375"
           r="3.3125" />
        <circle
           id="path3459"
           style="fill:url(#linearGradient3445)"
           transform="matrix(1.0566,0,0,1.0566,-17.198,24.863)"
           cx="288.375"
           cy="-437.59375"
           r="3.3125" />
      </g>
      <g
         id="g3463"
         transform="translate(7.0653,3.9468)">
        <circle
           id="path3465"
           style="fill:#c4c5c2"
           transform="matrix(1.0566,0,0,1.0566,-31.198,24.863)"
           cx="288.375"
           cy="-437.59375"
           r="3.3125" />
        <circle
           id="path3467"
           style="fill:url(#linearGradient3469)"
           transform="matrix(1.0566,0,0,1.0566,-31.198,24.863)"
           cx="288.375"
           cy="-437.59375"
           r="3.3125" />
      </g>
      <g
         id="g3487"
         transform="translate(7.5121,3.3894)">
        <circle
           id="path3489"
           style="fill:#c4c5c2"
           transform="matrix(1.0566,0,0,1.0566,-24.198,21.863)"
           cx="288.375"
           cy="-437.59375"
           r="3.3125" />
        <circle
           id="path3491"
           style="fill:url(#linearGradient3493)"
           transform="matrix(1.0566,0,0,1.0566,-24.198,21.863)"
           cx="288.375"
           cy="-437.59375"
           r="3.3125" />
      </g>
    </g>
    <g
       id="g3479"
       transform="matrix(18.072621,0,0,17.848781,-4833.4719,8011.0773)">
      <path
         id="path3481"
         sodipodi:nodetypes="cccc"
         style="fill:#c4c5c2"
         inkscape:connector-curvature="0"
         d="m 280.34,-441.55 c -3.5794,0 -6.4688,2.9206 -6.4688,6.5 0.56489,7.8655 12.106,7.592 12.969,-0.0312 0,-3.5794 -2.9206,-6.4688 -6.5,-6.4688 z" />
      <path
         id="path3483"
         sodipodi:nodetypes="cccc"
         style="fill:url(#linearGradient3454)"
         inkscape:connector-curvature="0"
         d="m 280.36,-441.57 c -3.588,0 -6.5,2.912 -6.5,6.5 0.53456,7.8928 12.138,7.6454 13,0 0,-3.588 -2.912,-6.5 -6.5,-6.5 z" />
    </g>
    <g
       id="g3431"
       transform="matrix(16.545475,0,0,16.340548,-4309.3114,7396.9996)">
      <path
         id="path3433"
         sodipodi:nodetypes="cccc"
         style="fill:#c4c5c2"
         inkscape:connector-curvature="0"
         d="m 280.34,-441.55 c -3.5794,0 -6.4688,2.9206 -6.4688,6.5 0.56489,7.8655 12.106,7.592 12.969,-0.0312 0,-3.5794 -2.9206,-6.4688 -6.5,-6.4688 z" />
      <path
         id="path3435"
         sodipodi:nodetypes="cccc"
         style="fill:url(#linearGradient3437)"
         inkscape:connector-curvature="0"
         d="m 280.36,-441.57 c -3.588,0 -6.5,2.912 -6.5,6.5 0.53456,7.8928 12.138,7.6454 13,0 0,-3.588 -2.912,-6.5 -6.5,-6.5 z" />
    </g>
  </g>
  <metadata
     id="metadata3478">
    <rdf:RDF>
      <cc:Work>
        <dc:format>image/svg+xml</dc:format>
        <dc:type
           rdf:resource="http://purl.org/dc/dcmitype/StillImage" />
        <cc:license
           rdf:resource="http://creativecommons.org/licenses/publicdomain/" />
        <dc:publisher>
          <cc:Agent
             rdf:about="http://openclipart.org/">
            <dc:title>Openclipart</dc:title>
          </cc:Agent>
        </dc:publisher>
        <dc:title />
        <dc:date>2011-07-29T10:10:16</dc:date>
        <dc:description>An internet cloud clipart influenced by Tango project guidelines</dc:description>
        <dc:source>https://openclipart.org/detail/152311/internet-cloud-by-b.gaultier</dc:source>
        <dc:creator>
          <cc:Agent>
            <dc:title>b.gaultier</dc:title>
          </cc:Agent>
        </dc:creator>
        <dc:subject>
          <rdf:Bag>
            <rdf:li>cloud</rdf:li>
            <rdf:li>internet</rdf:li>
            <rdf:li>tango</rdf:li>
          </rdf:Bag>
        </dc:subject>
      </cc:Work>
      <cc:License
         rdf:about="http://creativecommons.org/licenses/publicdomain/">
        <cc:permits
           rdf:resource="http://creativecommons.org/ns#Reproduction" />
        <cc:permits
           rdf:resource="http://creativecommons.org/ns#Distribution" />
        <cc:permits
           rdf:resource="http://creativecommons.org/ns#DerivativeWorks" />
      </cc:License>
    </rdf:RDF>
  </metadata>
</svg>
