<?xml version="1.0" encoding="UTF-8" standalone="no"?>
<!-- Created with Inkscape (http://www.inkscape.org/) -->
<svg
    xmlns:inkscape="http://www.inkscape.org/namespaces/inkscape"
    xmlns:rdf="http://www.w3.org/1999/02/22-rdf-syntax-ns#"
    xmlns="http://www.w3.org/2000/svg"
    xmlns:sodipodi="http://sodipodi.sourceforge.net/DTD/sodipodi-0.dtd"
    xmlns:cc="http://creativecommons.org/ns#"
    xmlns:xlink="http://www.w3.org/1999/xlink"
    xmlns:dc="http://purl.org/dc/elements/1.1/"
    xmlns:svg="http://www.w3.org/2000/svg"
    xmlns:ns1="http://sozi.baierouge.fr"
    id="svg1306"
    sodipodi:docname="utilities-system-monitor.svg"
    x="0"
    y="0"
    width="48px"
    height="48px"
    viewBox="0 0 48 48"
    sodipodi:version="0.32"
    inkscape:output_extension="org.inkscape.output.svg.inkscape"
    inkscape:version="0.46"
    sodipodi:docbase="/home/jimmac/src/cvs/tango-icon-theme/scalable/apps"
  >
  <defs
      id="defs1308"
    >
    <radialGradient
        id="radialGradient5031"
        xlink:href="#linearGradient5060"
        gradientUnits="userSpaceOnUse"
        cy="486.65"
        cx="605.71"
        gradientTransform="matrix(-2.7744 0 0 1.9697 112.76 -872.89)"
        r="117.14"
        inkscape:collect="always"
    />
    <linearGradient
        id="linearGradient5060"
        inkscape:collect="always"
      >
      <stop
          id="stop5062"
          style="stop-color:black"
          offset="0"
      />
      <stop
          id="stop5064"
          style="stop-color:black;stop-opacity:0"
          offset="1"
      />
    </linearGradient>
    <radialGradient
        id="radialGradient5029"
        xlink:href="#linearGradient5060"
        gradientUnits="userSpaceOnUse"
        cy="486.65"
        cx="605.71"
        gradientTransform="matrix(2.7744 0 0 1.9697 -1891.6 -872.89)"
        r="117.14"
        inkscape:collect="always"
    />
    <linearGradient
        id="linearGradient5027"
        y2="609.51"
        gradientUnits="userSpaceOnUse"
        x2="302.86"
        gradientTransform="matrix(2.7744 0 0 1.9697 -1892.2 -872.89)"
        y1="366.65"
        x1="302.86"
        inkscape:collect="always"
      >
      <stop
          id="stop5050"
          style="stop-color:black;stop-opacity:0"
          offset="0"
      />
      <stop
          id="stop5056"
          style="stop-color:black"
          offset=".5"
      />
      <stop
          id="stop5052"
          style="stop-color:black;stop-opacity:0"
          offset="1"
      />
    </linearGradient>
    <linearGradient
        id="linearGradient2212"
        y2="19.568"
        gradientUnits="userSpaceOnUse"
        x2="18.3"
        gradientTransform="matrix(.95239 0 0 1.0183 1.1426 -1.9416)"
        y1="26.134"
        x1="25.861"
        inkscape:collect="always"
      >
      <stop
          id="stop2208"
          style="stop-color:#c3c6c0"
          offset="0"
      />
      <stop
          id="stop2210"
          style="stop-color:#e8eae6"
          offset="1"
      />
    </linearGradient>
    <linearGradient
        id="linearGradient2220"
        y2="24.012"
        gradientUnits="userSpaceOnUse"
        x2="47.999"
        gradientTransform="matrix(.95239 0 0 1.0183 1.1426 -1.9416)"
        y1="24.012"
        x1=".0012142"
        inkscape:collect="always"
      >
      <stop
          id="stop2216"
          style="stop-color:#a9aaa7"
          offset="0"
      />
      <stop
          id="stop2218"
          style="stop-color:#676964"
          offset="1"
      />
    </linearGradient>
    <linearGradient
        id="linearGradient2244"
        y2="39.708"
        gradientUnits="userSpaceOnUse"
        x2="46.092"
        gradientTransform="matrix(.95239 0 0 1.0157 1.1426 -.87632)"
        y1="19.637"
        x1="20.339"
        inkscape:collect="always"
      >
      <stop
          id="stop2240"
          style="stop-color:#ffffff"
          offset="0"
      />
      <stop
          id="stop2242"
          style="stop-color:#ffffff;stop-opacity:0"
          offset="1"
      />
    </linearGradient>
    <linearGradient
        id="linearGradient1340"
        y2="24.238"
        gradientUnits="userSpaceOnUse"
        x2="12.499"
        gradientTransform="matrix(3.8095 0 0 1.7503 -16 -15.787)"
        y1="12.538"
        x1="8.8208"
        inkscape:collect="always"
      >
      <stop
          id="stop2182"
          style="stop-color:#ffffff"
          offset="0"
      />
      <stop
          id="stop2184"
          style="stop-color:#ffffff;stop-opacity:0"
          offset="1"
      />
    </linearGradient>
    <radialGradient
        id="radialGradient2229"
        gradientUnits="userSpaceOnUse"
        cy="32.267"
        cx="23.994"
        gradientTransform="matrix(1.7686 -1.9613e-23 1.5521e-23 1.3871 -18.442 -15.293)"
        r="19.089"
        inkscape:collect="always"
      >
      <stop
          id="stop2224"
          style="stop-color:#5187d6"
          offset="0"
      />
      <stop
          id="stop2227"
          style="stop-color:#1e4580"
          offset="1"
      />
    </radialGradient>
    <linearGradient
        id="linearGradient2231"
        y2="5.9589"
        gradientUnits="userSpaceOnUse"
        x2="15.044"
        y1="37.334"
        x1="35.694"
        inkscape:collect="always"
      >
      <stop
          id="stop2225"
          style="stop-color:#ffffff"
          offset="0"
      />
      <stop
          id="stop2229"
          style="stop-color:#ffffff;stop-opacity:0"
          offset="1"
      />
    </linearGradient>
  </defs>
  <sodipodi:namedview
      id="base"
      bordercolor="#666666"
      inkscape:pageshadow="2"
      inkscape:window-y="66"
      pagecolor="#ffffff"
      inkscape:window-height="782"
      inkscape:grid-bbox="true"
      inkscape:zoom="1"
      inkscape:window-x="370"
      showgrid="false"
      borderopacity="0.25490196"
      inkscape:current-layer="layer1"
      inkscape:cx="-105.4283"
      inkscape:cy="21.335249"
      inkscape:showpageshadow="false"
      inkscape:window-width="1064"
      inkscape:pageopacity="0.0"
      inkscape:document-units="px"
      fill="#204a87"
  />
  <g
      id="layer1"
      inkscape:label="Layer 1"
      inkscape:groupmode="layer"
    >
    <g
        id="g5022"
        transform="matrix(.024545 0 0 .020868 45.894 40.091)"
      >
      <rect
          id="rect4173"
          style="opacity:.40206;color:black;fill:url(#linearGradient5027)"
          height="478.36"
          width="1339.6"
          y="-150.7"
          x="-1559.3"
      />
      <path
          id="path5058"
          sodipodi:nodetypes="cccc"
          style="opacity:.40206;color:black;fill:url(#radialGradient5029)"
          d="m-219.62-150.68v478.33c142.88 0.9 345.4-107.17 345.4-239.2 0-132.02-159.44-239.13-345.4-239.13z"
      />
      <path
          id="path5018"
          sodipodi:nodetypes="cccc"
          style="opacity:.40206;color:black;fill:url(#radialGradient5031)"
          d="m-1559.3-150.68v478.33c-142.8 0.9-345.4-107.17-345.4-239.2 0-132.02 159.5-239.13 345.4-239.13z"
      />
    </g>
    <rect
        id="rect1316"
        style="stroke-linejoin:round;fill-rule:evenodd;stroke:url(#linearGradient2220);stroke-linecap:round;fill:url(#linearGradient2212)"
        rx="4.566"
        ry="4.566"
        height="41.702"
        width="44.76"
        y="1.6601"
        x="1.6199"
    />
    <rect
        id="rect1314"
        style="stroke-linejoin:round;fill-rule:evenodd;stroke:#173562;stroke-linecap:round;fill:url(#radialGradient2229)"
        rx="1.6947"
        ry="1.6947"
        height="28.955"
        width="37.178"
        y="5.4816"
        x="5.4052"
    />
    <path
        id="path2188"
        sodipodi:nodetypes="ccccccccccccccccc"
        style="stroke-opacity:.41618;fill-rule:evenodd;stroke:#c3ea9b;stroke-miterlimit:10;fill:#ecffd9"
        d="m12.391 20.935h-6.0221v1.217h7.7191l1.406-5.913 3.462 13.698 3.209-10.82 2.894 5.912 3.887-3.512h12.709v-2.06h-13.15l-3.17 3.14-3.275-6.659-3.01 8.174-3.269-12.863-3.39 9.686z"
    />
    <rect
        id="rect2232"
        style="stroke-linejoin:round;stroke:url(#linearGradient2244);stroke-linecap:round;fill:none"
        rx="4.1303"
        ry="4.1303"
        height="39.647"
        width="42.895"
        y="2.6544"
        x="2.5537"
    />
    <path
        id="path3088"
        sodipodi:nodetypes="ccccccccccccccccc"
        style="opacity:.38068;stroke-opacity:.41618;fill-rule:evenodd;stroke:#c3ea9b;fill:#ecffd9"
        d="m11.516 20.012h-5.1471v3.049l8.5941-0.125 0.656-3.043 3.344 12.709 3.577-11.467 2.519 5.416 4.262-4.108 12.334-0.125-0.75-3.91-12.4-0.125-3.045 3.173-3.4-7.79-2.635 6.938-3.519-12.27-4.39 11.678z"
    />
    <path
        id="rect2178"
        sodipodi:nodetypes="ccsccc"
        style="opacity:.43182;fill-rule:evenodd;fill:url(#linearGradient1340)"
        d="m6.8438 6.9688v8.8262c3.6702 0.688 7.7392 1.08 12.031 1.08 8.935 0 16.937-1.665 22.281-4.278v-5.6282h-34.312z"
    />
    <g
        id="g3126"
        style="opacity:.079545;stroke:#000000;fill:#000000"
        transform="translate(.18750 .68750)"
      >
      <path
          id="path3120"
          sodipodi:nodetypes="ccsssscc"
          style="opacity:1;color:#000000;stroke:#000000;stroke-miterlimit:10;fill:#000000"
          d="m39.125 37.812l-1.063-0.468c-0.256-0.14-0.562-0.219-0.874-0.219-1.001 0-1.813 0.812-1.813 1.813 0 1 0.812 1.812 1.813 1.812 0.969 0 1.763-0.762 1.812-1.719v-0.031l0.125-1.188z"
      />
      <path
          id="path3122"
          sodipodi:nodetypes="ccsssscc"
          style="opacity:1;color:#000000;stroke:#000000;stroke-miterlimit:10;fill:#000000"
          d="m28.993 37.545l-0.1 1.165c-0.037 0.29-0.001 0.603 0.112 0.895 0.362 0.933 1.413 1.396 2.345 1.035 0.933-0.362 1.397-1.412 1.035-2.345-0.35-0.904-1.347-1.37-2.257-1.069-0.008 0.002-0.022 0.009-0.029 0.011l-1.106 0.308z"
      />
      <path
          id="path3124"
          sodipodi:nodetypes="ccsssscc"
          style="opacity:1;color:#000000;stroke:#000000;stroke-miterlimit:10;fill:#000000"
          d="m25.5 37.812l-0.938-0.468c-0.256-0.14-0.562-0.219-0.874-0.219-1.001 0-1.813 0.812-1.813 1.813 0 1 0.812 1.812 1.813 1.812 0.969 0 1.763-0.762 1.812-1.719v-0.031-1.188z"
      />
    </g>
    <path
        id="path3111"
        sodipodi:nodetypes="ccsssscc"
        style="color:#000000;stroke:#9b9d99;stroke-miterlimit:10;fill:#e0e2df"
        d="m39.125 37.812l-1.063-0.468c-0.256-0.14-0.562-0.219-0.874-0.219-1.001 0-1.813 0.812-1.813 1.813 0 1 0.812 1.812 1.813 1.812 0.969 0 1.763-0.762 1.812-1.719v-0.031l0.125-1.188z"
    />
    <path
        id="path3116"
        sodipodi:nodetypes="ccsssscc"
        style="color:#000000;stroke:#9b9d99;stroke-miterlimit:10;fill:#e0e2df"
        d="m28.993 37.545l-0.1 1.165c-0.037 0.29-0.001 0.603 0.112 0.895 0.362 0.933 1.413 1.396 2.345 1.035 0.933-0.362 1.397-1.412 1.035-2.345-0.35-0.904-1.347-1.37-2.257-1.069-0.008 0.002-0.022 0.009-0.029 0.011l-1.106 0.308z"
    />
    <path
        id="path3118"
        sodipodi:nodetypes="ccsssscc"
        style="color:#000000;stroke:#9b9d99;stroke-miterlimit:10;fill:#e0e2df"
        d="m25.5 37.812l-0.938-0.468c-0.256-0.14-0.562-0.219-0.874-0.219-1.001 0-1.813 0.812-1.813 1.813 0 1 0.812 1.812 1.813 1.812 0.969 0 1.763-0.762 1.812-1.719v-0.031-1.188z"
    />
    <rect
        id="rect2221"
        style="opacity:.57386;stroke-linejoin:round;stroke:url(#linearGradient2231);stroke-linecap:round;fill:none"
        rx="2.5697"
        ry="2.5697"
        height="30.646"
        width="39.35"
        y="4.6358"
        x="4.3192"/>
  </g>
  <metadata>
    <rdf:RDF>
      <cc:Work>
        <dc:format>image/svg+xml</dc:format>
        <dc:type
            rdf:resource="http://purl.org/dc/dcmitype/StillImage"
        />
        <cc:license
            rdf:resource="http://creativecommons.org/licenses/publicdomain/"
        />
        <dc:publisher>
          <cc:Agent
              rdf:about="http://openclipart.org/">
            <dc:title>Openclipart</dc:title>
          </cc:Agent>
        </dc:publisher>
        <dc:title>tango utilities system monitor</dc:title>
        <dc:date>2010-03-29T08:46:59</dc:date>
        <dc:description>"System monitor" icon from &lt;a href="http://tango.freedesktop.org/Tango_Desktop_Project"&gt; Tango Project &lt;/a&gt; &#13;\n&lt;br&gt;&lt;br&gt;&#13;\nSince version 0.8.90 Tango Project icons are Public Domain: &lt;a href="http://tango.freedesktop.org/Frequently_Asked_Questions#Terms_of_Use.3F"&gt; Tango Project FAQ &lt;/a&gt;</dc:description>
        <dc:source>https://openclipart.org/detail/35353/tango-utilities-system-monitor-by-warszawianka</dc:source>
        <dc:creator>
          <cc:Agent>
            <dc:title>warszawianka</dc:title>
          </cc:Agent>
        </dc:creator>
        <dc:subject>
          <rdf:Bag>
            <rdf:li>display</rdf:li>
            <rdf:li>externalsource</rdf:li>
            <rdf:li>icon</rdf:li>
            <rdf:li>monitor</rdf:li>
            <rdf:li>screen</rdf:li>
            <rdf:li>signal</rdf:li>
            <rdf:li>tango</rdf:li>
          </rdf:Bag>
        </dc:subject>
      </cc:Work>
      <cc:License
          rdf:about="http://creativecommons.org/licenses/publicdomain/"
        >
        <cc:permits
            rdf:resource="http://creativecommons.org/ns#Reproduction"
        />
        <cc:permits
            rdf:resource="http://creativecommons.org/ns#Distribution"
        />
        <cc:permits
            rdf:resource="http://creativecommons.org/ns#DerivativeWorks"
        />
      </cc:License>
    </rdf:RDF>
  </metadata>
</svg>
